<svg width="65" height="22" viewBox="0 0 65 22" fill="none" xmlns="http://www.w3.org/2000/svg">
<path d="M43.4673 0.304321C42.8955 0.304321 42.4321 0.768866 42.4321 1.34213V10.4699C42.4321 11.0432 42.8955 11.5077 43.4673 11.5077C44.0392 11.5077 44.5025 11.0432 44.5025 10.4699V1.34213C44.5033 0.768866 44.0392 0.304321 43.4673 0.304321Z" fill="#333333"/>
<path d="M40.8387 0.396784C40.3204 0.162394 39.7106 0.393254 39.4768 0.912866L36.2282 8.04482L32.9916 0.939694C32.7578 0.420082 32.1479 0.189222 31.6296 0.423612C31.1113 0.658002 30.881 1.26939 31.1148 1.789L35.2648 10.9006C35.4986 11.4202 36.1085 11.651 36.6268 11.4166C36.6345 11.4131 36.6409 11.4089 36.6486 11.4054C36.8859 11.3093 37.0887 11.1258 37.2021 10.8737L41.3521 1.76218C41.5873 1.24327 41.357 0.63188 40.8387 0.396784Z" fill="#333333"/>
<path d="M55.3065 0.396784C54.7882 0.162394 54.1783 0.393254 53.9445 0.912866L50.696 8.04482L47.4593 0.939694C47.2255 0.420082 46.6157 0.189222 46.0974 0.423612C45.5791 0.658002 45.3488 1.26939 45.5826 1.789L49.7326 10.9006C49.9664 11.4202 50.5762 11.651 51.0945 11.4166C51.1023 11.4131 51.1086 11.4089 51.1164 11.4054C51.3537 11.3093 51.5565 11.1258 51.6699 10.8737L55.8199 1.76218C56.0551 1.24327 55.8248 0.63188 55.3065 0.396784Z" fill="#333333"/>
<path d="M63.9929 10.047L59.8422 0.935449C59.6084 0.415837 58.9986 0.184977 58.4803 0.419367C58.4725 0.422897 58.4662 0.427133 58.4584 0.430663C58.2211 0.526678 58.0183 0.710237 57.9049 0.962277L53.7542 10.0745C53.5204 10.5942 53.7507 11.2055 54.269 11.4399C54.7873 11.6743 55.3972 11.4435 55.631 10.9239L58.8796 3.7919L62.1155 10.897C62.3493 11.4166 62.9591 11.6475 63.4774 11.4131C63.9964 11.178 64.2267 10.5666 63.9929 10.047Z" fill="#333333"/>
<path d="M0 10.1656C0 10.7389 0.463379 11.2034 1.03521 11.2034C1.60704 11.2034 2.07042 10.7389 2.07042 10.1656V1.03781C2.07042 0.464544 1.60704 0 1.03521 0C0.463379 0 0 0.464544 0 1.03781V10.1656Z" fill="#FDB913"/>
<path d="M8.6412 1.79956C9.06232 1.37667 9.07641 0.70527 8.67218 0.30003C8.26796 -0.105917 7.59824 -0.0917974 7.17712 0.331093L2.68558 4.83746C2.26446 5.26035 2.25037 5.93175 2.6546 6.33699C3.05882 6.74293 3.72854 6.72881 4.14966 6.30592L8.6412 1.79956Z" fill="#94248A"/>
<path d="M2.68607 6.37586C2.26494 5.95297 2.25086 5.28156 2.65508 4.87632C3.05931 4.47038 3.72902 4.4845 4.15015 4.90739L8.64098 9.41375C9.06211 9.83664 9.07619 10.508 8.67197 10.9133C8.26775 11.3185 7.59803 11.3051 7.1769 10.8822L2.68607 6.37586Z" fill="#004C91"/>
<path d="M14.2274 0C11.1415 0 8.6394 2.5084 8.6394 5.60206C8.6394 8.69573 11.1415 11.2041 14.2274 11.2041C17.3133 11.2041 19.8154 8.69573 19.8154 5.60206C19.8147 2.50769 17.3133 0 14.2274 0ZM14.1352 9.24146C12.1809 9.24146 10.5964 7.65298 10.5964 5.69384C10.5964 3.73471 12.1809 2.14622 14.1352 2.14622C16.0894 2.14622 17.6739 3.73471 17.6739 5.69384C17.6739 7.65298 16.0894 9.24146 14.1352 9.24146Z" fill="#333333"/>
<path d="M25.6992 0.288696C24.6449 0.288696 23.6689 0.623338 22.8696 1.19096C22.7879 0.699585 22.3633 0.323996 21.8492 0.323996C21.2773 0.323996 20.814 0.788541 20.814 1.36181V5.15512V9.49063V10.4896C20.814 11.0629 21.2773 11.5274 21.8492 11.5274C22.421 11.5274 22.8844 11.0629 22.8844 10.4896V9.1454L22.9076 9.14187V5.17347C22.9076 3.6344 24.1654 2.38621 25.7104 2.38621C27.2555 2.38621 28.5132 3.6337 28.5132 5.17347V5.40786V9.10233V10.4903C28.5132 11.0636 28.9766 11.5281 29.5484 11.5281C30.1203 11.5281 30.5837 11.0636 30.5837 10.4903V9.42144V5.40786V5.15512C30.5844 2.4674 28.3921 0.288696 25.6992 0.288696Z" fill="#333333"/>
<path d="M60.2365 21.0528C62.1907 21.0528 63.7752 19.4643 63.7752 17.5051C63.7752 15.546 62.1907 13.9575 60.2365 13.9575H49.0294C47.0752 13.9575 45.4907 15.546 45.4907 17.5051C45.4907 19.4643 47.0752 21.0528 49.0294 21.0528H60.2365Z" fill="#004C91"/>
<path d="M50.193 18.9525H51.8465V19.2716H49.8311V15.7402H50.193V18.9525Z" fill="white"/>
<path d="M55.8242 15.7402L56.3087 19.2716H55.9418L55.5799 16.4709L54.4693 19.2716H54.151L53.0404 16.4709L52.6785 19.2716H52.3066L52.7961 15.7402H53.1095L54.313 18.7612L55.5116 15.7402H55.8242Z" fill="white"/>
<path d="M57.1297 18.1483C57.2811 18.7124 57.6389 18.9969 58.1966 18.9969C58.691 18.9969 59.0628 18.7668 59.0628 18.3149C59.0628 17.9026 58.7741 17.7261 58.2896 17.633L57.991 17.5793C57.3354 17.4466 57.0079 17.1381 57.0079 16.6474C57.0079 16.3431 57.1156 16.108 57.3361 15.9463C57.5565 15.7797 57.8255 15.6964 58.153 15.6964C58.8037 15.6964 59.2635 16.0346 59.3762 16.7067L59.0487 16.7752C58.9558 16.2654 58.6572 16.0099 58.1537 16.0099C57.7184 16.0099 57.3854 16.216 57.3854 16.6135C57.3854 16.9517 57.6396 17.1677 58.1438 17.2658L58.4572 17.3195C59.1079 17.4423 59.4353 17.7657 59.4353 18.3001C59.4353 18.6383 59.3128 18.8889 59.0734 19.0605C58.8339 19.232 58.5354 19.3153 58.1832 19.3153C57.479 19.3153 56.9797 18.9475 56.8086 18.2168L57.1297 18.1483Z" fill="white"/>
</svg>
