<svg width="111" height="37" viewBox="0 0 111 37" fill="none" xmlns="http://www.w3.org/2000/svg">
<path d="M75.2897 0.5271C74.2992 0.5271 73.4966 1.33173 73.4966 2.32469V18.1349C73.4966 19.1278 74.2992 19.9325 75.2897 19.9325C76.2801 19.9325 77.0827 19.1278 77.0827 18.1349V2.32469C77.084 1.33173 76.2801 0.5271 75.2897 0.5271Z" fill="#333333"/>
<path d="M70.7364 0.687238C69.8386 0.281253 68.7823 0.681125 68.3773 1.58114L62.7505 13.9344L57.1443 1.62761C56.7394 0.727593 55.683 0.327722 54.7853 0.733707C53.8875 1.13969 53.4887 2.19868 53.8936 3.0987L61.0818 18.8808C61.4868 19.7808 62.5431 20.1807 63.4409 19.7747C63.4543 19.7686 63.4652 19.7612 63.4787 19.7551C63.8897 19.5888 64.241 19.2709 64.4374 18.8343L71.6256 3.05223C72.033 2.15343 71.6341 1.09445 70.7364 0.687238Z" fill="#333333"/>
<path d="M95.7962 0.687238C94.8984 0.281253 93.8421 0.681125 93.4371 1.58114L87.8103 13.9344L82.2042 1.62761C81.7992 0.727593 80.7429 0.327722 79.8451 0.733707C78.9473 1.13969 78.5485 2.19868 78.9534 3.0987L86.1416 18.8808C86.5466 19.7808 87.6029 20.1807 88.5007 19.7747C88.5141 19.7686 88.5251 19.7612 88.5385 19.7551C88.9495 19.5888 89.3008 19.2709 89.4972 18.8343L96.6854 3.05223C97.0928 2.15343 96.6939 1.09445 95.7962 0.687238Z" fill="#333333"/>
<path d="M110.842 17.4024L103.653 1.62033C103.248 0.720309 102.191 0.320437 101.293 0.726423C101.28 0.732537 101.269 0.739875 101.256 0.745989C100.845 0.912296 100.493 1.23024 100.297 1.66679L93.1075 17.4501C92.7025 18.3501 93.1014 19.4091 93.9992 19.8151C94.8969 20.2211 95.9532 19.8212 96.3582 18.9212L101.985 6.56797L107.59 18.8747C107.995 19.7747 109.051 20.1746 109.949 19.7686C110.848 19.3614 111.247 18.3024 110.842 17.4024Z" fill="#333333"/>
<path d="M0 17.6078C0 18.6007 0.802616 19.4054 1.79308 19.4054C2.78354 19.4054 3.58616 18.6007 3.58616 17.6078V1.79759C3.58616 0.804634 2.78354 0 1.79308 0C0.802616 0 0 0.804634 0 1.79759V17.6078Z" fill="#FDB913"/>
<path d="M14.9674 3.117C15.6968 2.38451 15.7212 1.22158 15.0211 0.519669C14.3209 -0.183469 13.1609 -0.159012 12.4315 0.573474L4.65171 8.37891C3.92228 9.1114 3.89788 10.2743 4.59804 10.9762C5.29819 11.6794 6.4582 11.6549 7.18763 10.9224L14.9674 3.117Z" fill="#94248A"/>
<path d="M4.65244 11.0435C3.92301 10.311 3.89862 9.1481 4.59877 8.44618C5.29892 7.74304 6.45894 7.7675 7.18837 8.49999L14.9669 16.3054C15.6963 17.0379 15.7207 18.2008 15.0206 18.9028C14.3204 19.6047 13.1604 19.5814 12.431 18.849L4.65244 11.0435Z" fill="#004C91"/>
<path d="M24.6431 0C19.298 0 14.9641 4.34478 14.9641 9.7033C14.9641 15.0618 19.298 19.4066 24.6431 19.4066C29.9882 19.4066 34.322 15.0618 34.322 9.7033C34.3208 4.34356 29.9882 0 24.6431 0ZM24.4833 16.0071C21.0984 16.0071 18.3539 13.2557 18.3539 9.86227C18.3539 6.46887 21.0984 3.71746 24.4833 3.71746C27.8682 3.71746 30.6127 6.46887 30.6127 9.86227C30.6127 13.2557 27.8682 16.0071 24.4833 16.0071Z" fill="#333333"/>
<path d="M44.5134 0.5C42.6874 0.5 40.9967 1.07963 39.6123 2.0628C39.4708 1.2117 38.7353 0.561142 37.8448 0.561142C36.8544 0.561142 36.0518 1.36578 36.0518 2.35873V8.92909V16.4386V18.1689C36.0518 19.1619 36.8544 19.9665 37.8448 19.9665C38.8353 19.9665 39.6379 19.1619 39.6379 18.1689V15.8406L39.6782 15.8345V8.96089C39.6782 6.29508 41.8567 4.13308 44.5329 4.13308C47.2091 4.13308 49.3876 6.29386 49.3876 8.96089V9.36687V15.766V18.1702C49.3876 19.1631 50.1902 19.9677 51.1807 19.9677C52.1712 19.9677 52.9738 19.1631 52.9738 18.1702V16.3188V9.36687V8.92909C52.975 4.27371 49.1778 0.5 44.5134 0.5Z" fill="#333333"/>
<path d="M104.335 36.4654C107.72 36.4654 110.465 33.714 110.465 30.3206C110.465 26.9272 107.72 24.1758 104.335 24.1758H84.9236C81.5387 24.1758 78.7942 26.9272 78.7942 30.3206C78.7942 33.714 81.5387 36.4654 84.9236 36.4654H104.335Z" fill="#004C91"/>
<path d="M86.939 32.8274H89.803V33.3801H86.312V27.2634H86.939V32.8274Z" fill="white"/>
<path d="M96.6927 27.2634L97.5319 33.3801H96.8964L96.2694 28.5291L94.3458 33.3801H93.7945L91.8709 28.5291L91.2439 33.3801H90.5999L91.4476 27.2634H91.9904L94.075 32.496L96.1511 27.2634H96.6927Z" fill="white"/>
<path d="M98.9539 31.4346C99.2162 32.4116 99.8358 32.9044 100.802 32.9044C101.658 32.9044 102.302 32.5058 102.302 31.7232C102.302 31.009 101.802 30.7033 100.963 30.5419L100.446 30.449C99.3101 30.2191 98.7429 29.6847 98.7429 28.8348C98.7429 28.3078 98.9295 27.9005 99.3113 27.6205C99.6931 27.3319 100.159 27.1876 100.726 27.1876C101.853 27.1876 102.65 27.7734 102.845 28.9375L102.278 29.0561C102.117 28.1732 101.6 27.7306 100.727 27.7306C99.9737 27.7306 99.3967 28.0876 99.3967 28.7761C99.3967 29.3618 99.837 29.736 100.71 29.906L101.253 29.9989C102.38 30.2117 102.947 30.7718 102.947 31.6975C102.947 32.2832 102.735 32.7173 102.321 33.0145C101.906 33.3116 101.389 33.4559 100.779 33.4559C99.5589 33.4559 98.6941 32.8188 98.3977 31.5532L98.9539 31.4346Z" fill="white"/>
</svg>
