<svg width="309" height="56" viewBox="0 0 309 56" fill="none" xmlns="http://www.w3.org/2000/svg">
<path d="M209.488 1.46741C206.732 1.46741 204.499 3.70766 204.499 6.47222V50.4907C204.499 53.2553 206.732 55.4956 209.488 55.4956C212.243 55.4956 214.477 53.2553 214.477 50.4907V6.47222C214.48 3.70766 212.243 1.46741 209.488 1.46741Z" fill="#333333"/>
<path d="M196.818 1.91346C194.32 0.783118 191.381 1.89644 190.254 4.40225L174.598 38.7959L159.003 4.53162C157.876 2.02581 154.937 0.912496 152.439 2.04283C149.941 3.17317 148.831 6.12159 149.958 8.6274L169.958 52.5676C171.085 55.0734 174.024 56.1867 176.522 55.0564C176.559 55.0394 176.59 55.019 176.627 55.0019C177.771 54.5389 178.749 53.6537 179.295 52.4382L199.295 8.49802C200.426 5.99562 199.316 3.0472 196.818 1.91346Z" fill="#333333"/>
<path d="M266.543 1.91346C264.045 0.783118 261.106 1.89644 259.979 4.40225L244.323 38.7959L228.728 4.53162C227.601 2.02581 224.662 0.912496 222.164 2.04283C219.666 3.17317 218.556 6.12159 219.683 8.6274L239.684 52.5676C240.81 55.0734 243.749 56.1867 246.247 55.0564C246.285 55.0394 246.315 55.019 246.353 55.0019C247.496 54.5389 248.474 53.6537 249.02 52.4382L269.021 8.49802C270.151 5.99562 269.041 3.0472 266.543 1.91346Z" fill="#333333"/>
<path d="M308.407 48.4514L288.407 4.51113C287.28 2.00532 284.341 0.892005 281.843 2.02234C281.805 2.03937 281.775 2.0598 281.737 2.07682C280.594 2.53985 279.616 3.42505 279.07 4.64051L259.069 48.5807C257.943 51.0865 259.052 54.035 261.55 55.1653C264.048 56.2956 266.987 55.1823 268.114 52.6765L283.77 18.2829L299.366 52.5471C300.492 55.0529 303.431 56.1663 305.929 55.0359C308.424 53.9056 309.534 50.9572 308.407 48.4514Z" fill="#333333"/>
<path d="M0 49.0233C0 51.7879 2.2332 54.0282 4.98907 54.0282C7.74495 54.0282 9.97819 51.7879 9.97819 49.0233V5.00481C9.97819 2.24025 7.74495 0 4.98907 0C2.2332 0 0 2.24025 0 5.00481V49.0233Z" fill="#FDB913"/>
<path d="M41.6437 8.6784C43.6733 6.63902 43.7412 3.40121 41.7931 1.44695C39.845 -0.510712 36.6173 -0.442621 34.5878 1.59676L12.9412 23.3285C10.9116 25.3679 10.8437 28.6057 12.7919 30.56C14.74 32.5142 17.9676 32.4496 19.9972 30.4102L41.6437 8.6784Z" fill="#94248A"/>
<path d="M12.9446 30.7473C10.915 28.7079 10.8471 25.4701 12.7953 23.5158C14.7434 21.5616 17.9711 21.6263 20.0006 23.6656L41.6438 45.3974C43.6733 47.4368 43.7412 50.6746 41.7931 52.6289C39.845 54.5831 36.6174 54.5184 34.5878 52.4791L12.9446 30.7473Z" fill="#004C91"/>
<path d="M68.5679 0C53.6956 0 41.637 12.0967 41.637 27.0158C41.637 41.9349 53.6956 54.0316 68.5679 54.0316C83.4401 54.0316 95.4988 41.9349 95.4988 27.0158C95.4954 12.0933 83.4401 0 68.5679 0ZM68.1232 44.5667C58.7051 44.5667 51.0687 36.9062 51.0687 27.4584C51.0687 18.0105 58.7051 10.3501 68.1232 10.3501C77.5414 10.3501 85.1778 18.0105 85.1778 27.4584C85.1778 36.9062 77.5414 44.5667 68.1232 44.5667Z" fill="#333333"/>
<path d="M123.855 1.39246C118.774 1.39246 114.07 3.00625 110.218 5.74358C109.824 3.37395 107.778 1.56269 105.3 1.56269C102.544 1.56269 100.311 3.80294 100.311 6.5675V24.8606V45.7685V50.586C100.311 53.3506 102.544 55.5908 105.3 55.5908C108.056 55.5908 110.289 53.3506 110.289 50.586V44.1036L110.401 44.0866V24.9491C110.401 17.527 116.463 11.5076 123.909 11.5076C131.356 11.5076 137.417 17.5236 137.417 24.9491V26.0795V43.8959V50.5894C137.417 53.354 139.65 55.5942 142.406 55.5942C145.162 55.5942 147.395 53.354 147.395 50.5894V45.4348V26.0795V24.8606C147.399 11.8992 136.833 1.39246 123.855 1.39246Z" fill="#333333"/>
</svg>
