<svg width="821" height="444" viewBox="0 0 821 444" fill="none" xmlns="http://www.w3.org/2000/svg">
<path d="M118.78 158.119C109.892 99.2628 154.358 45.398 213.853 43.5775L614.585 31.3159C695.673 28.8348 742.316 122.623 691.406 185.786L676.387 204.42C658.694 226.371 657.685 257.389 673.915 280.443V280.443C703.385 322.305 673.443 380 622.248 380H184.013C105.701 380 59.2348 292.456 103.121 227.596V227.596C116.868 207.279 122.442 182.374 118.78 158.119V158.119Z" fill="white"/>
<path d="M165.288 148.624C167.272 149.072 168.84 150.064 169.992 151.6C171.176 153.104 171.768 154.832 171.768 156.784C171.768 159.664 170.776 161.92 168.792 163.552C166.808 165.184 164.024 166 160.44 166H143.688V132.16H159.912C163.368 132.16 166.072 132.928 168.024 134.464C170.008 136 171 138.16 171 140.944C171 142.928 170.472 144.592 169.416 145.936C168.392 147.248 167.016 148.144 165.288 148.624ZM153.096 145.6H157.848C160.216 145.6 161.4 144.624 161.4 142.672C161.4 140.656 160.216 139.648 157.848 139.648H153.096V145.6ZM158.568 158.416C160.936 158.416 162.12 157.424 162.12 155.44C162.12 154.416 161.8 153.632 161.16 153.088C160.552 152.544 159.672 152.272 158.52 152.272H153.096V158.416H158.568ZM202.019 152.224C202.019 152.96 201.971 153.696 201.875 154.432H184.067C184.163 155.904 184.563 157.008 185.267 157.744C186.003 158.448 186.931 158.8 188.051 158.8C189.619 158.8 190.739 158.096 191.411 156.688H201.443C201.027 158.544 200.211 160.208 198.995 161.68C197.811 163.12 196.307 164.256 194.483 165.088C192.659 165.92 190.643 166.336 188.435 166.336C185.779 166.336 183.411 165.776 181.331 164.656C179.283 163.536 177.667 161.936 176.483 159.856C175.331 157.776 174.755 155.328 174.755 152.512C174.755 149.696 175.331 147.264 176.483 145.216C177.635 143.136 179.235 141.536 181.283 140.416C183.363 139.296 185.747 138.736 188.435 138.736C191.091 138.736 193.443 139.28 195.491 140.368C197.539 141.456 199.139 143.024 200.291 145.072C201.443 147.088 202.019 149.472 202.019 152.224ZM192.419 149.872C192.419 148.72 192.035 147.824 191.267 147.184C190.499 146.512 189.539 146.176 188.387 146.176C187.235 146.176 186.291 146.496 185.555 147.136C184.819 147.744 184.339 148.656 184.115 149.872H192.419ZM241.453 138.832C244.845 138.832 247.501 139.856 249.421 141.904C251.373 143.952 252.349 146.752 252.349 150.304V166H242.941V151.552C242.941 150.112 242.541 148.992 241.741 148.192C240.941 147.392 239.853 146.992 238.477 146.992C237.101 146.992 236.013 147.392 235.213 148.192C234.413 148.992 234.013 150.112 234.013 151.552V166H224.605V151.552C224.605 150.112 224.205 148.992 223.405 148.192C222.637 147.392 221.565 146.992 220.189 146.992C218.781 146.992 217.677 147.392 216.877 148.192C216.077 148.992 215.677 150.112 215.677 151.552V166H206.269V139.072H215.677V142.624C216.509 141.472 217.581 140.56 218.893 139.888C220.237 139.184 221.773 138.832 223.501 138.832C225.485 138.832 227.245 139.264 228.781 140.128C230.349 140.992 231.581 142.208 232.477 143.776C233.437 142.304 234.701 141.12 236.269 140.224C237.837 139.296 239.565 138.832 241.453 138.832ZM278.688 145.456V153.28H256.944V145.456H278.688ZM298.966 157.12L304.006 139.072H314.038L304.774 166H293.062L283.798 139.072H293.83L298.966 157.12ZM322.378 136.576C320.714 136.576 319.37 136.128 318.346 135.232C317.354 134.304 316.858 133.152 316.858 131.776C316.858 130.368 317.354 129.2 318.346 128.272C319.37 127.344 320.714 126.88 322.378 126.88C324.01 126.88 325.322 127.344 326.314 128.272C327.338 129.2 327.85 130.368 327.85 131.776C327.85 133.152 327.338 134.304 326.314 135.232C325.322 136.128 324.01 136.576 322.378 136.576ZM327.034 139.072V166H317.626V139.072H327.034ZM350.407 138.832C353.511 138.832 355.975 139.872 357.799 141.952C359.623 144 360.535 146.784 360.535 150.304V166H351.127V151.552C351.127 150.016 350.727 148.816 349.927 147.952C349.127 147.056 348.055 146.608 346.711 146.608C345.303 146.608 344.199 147.056 343.399 147.952C342.599 148.816 342.199 150.016 342.199 151.552V166H332.791V139.072H342.199V142.912C343.031 141.696 344.151 140.72 345.559 139.984C346.967 139.216 348.583 138.832 350.407 138.832ZM364.561 152.512C364.561 149.728 365.057 147.296 366.049 145.216C367.073 143.136 368.465 141.536 370.225 140.416C371.985 139.296 373.937 138.736 376.081 138.736C377.809 138.736 379.345 139.104 380.689 139.84C382.065 140.544 383.137 141.52 383.905 142.768V130.48H393.361V166H383.905V162.256C383.169 163.504 382.129 164.496 380.785 165.232C379.441 165.968 377.857 166.336 376.033 166.336C373.889 166.336 371.937 165.776 370.177 164.656C368.449 163.536 367.073 161.936 366.049 159.856C365.057 157.744 364.561 155.296 364.561 152.512ZM383.953 152.512C383.953 150.784 383.473 149.424 382.513 148.432C381.585 147.44 380.433 146.944 379.057 146.944C377.649 146.944 376.481 147.44 375.553 148.432C374.625 149.392 374.161 150.752 374.161 152.512C374.161 154.24 374.625 155.616 375.553 156.64C376.481 157.632 377.649 158.128 379.057 158.128C380.433 158.128 381.585 157.632 382.513 156.64C383.473 155.648 383.953 154.272 383.953 152.512ZM411.65 166.336C408.962 166.336 406.546 165.776 404.402 164.656C402.29 163.536 400.626 161.936 399.41 159.856C398.194 157.776 397.586 155.328 397.586 152.512C397.586 149.728 398.194 147.296 399.41 145.216C400.658 143.136 402.338 141.536 404.45 140.416C406.594 139.296 409.01 138.736 411.698 138.736C414.386 138.736 416.786 139.296 418.898 140.416C421.042 141.536 422.722 143.136 423.938 145.216C425.186 147.296 425.81 149.728 425.81 152.512C425.81 155.296 425.186 157.744 423.938 159.856C422.722 161.936 421.042 163.536 418.898 164.656C416.754 165.776 414.338 166.336 411.65 166.336ZM411.65 158.176C412.962 158.176 414.05 157.696 414.914 156.736C415.81 155.744 416.258 154.336 416.258 152.512C416.258 150.688 415.81 149.296 414.914 148.336C414.05 147.376 412.978 146.896 411.698 146.896C410.418 146.896 409.346 147.376 408.482 148.336C407.618 149.296 407.186 150.688 407.186 152.512C407.186 154.368 407.602 155.776 408.434 156.736C409.266 157.696 410.338 158.176 411.65 158.176ZM441.51 166.336C439.078 166.336 436.902 165.936 434.982 165.136C433.094 164.304 431.59 163.184 430.47 161.776C429.382 160.336 428.774 158.72 428.646 156.928H437.766C437.894 157.792 438.294 158.464 438.966 158.944C439.638 159.424 440.47 159.664 441.462 159.664C442.23 159.664 442.838 159.504 443.286 159.184C443.734 158.864 443.958 158.448 443.958 157.936C443.958 157.264 443.59 156.768 442.854 156.448C442.118 156.128 440.902 155.776 439.206 155.392C437.286 155.008 435.686 154.576 434.406 154.096C433.126 153.616 432.006 152.832 431.046 151.744C430.118 150.656 429.654 149.184 429.654 147.328C429.654 145.728 430.086 144.288 430.95 143.008C431.814 141.696 433.078 140.656 434.742 139.888C436.438 139.12 438.47 138.736 440.838 138.736C444.358 138.736 447.126 139.6 449.142 141.328C451.158 143.056 452.326 145.328 452.646 148.144H444.15C443.99 147.28 443.606 146.624 442.998 146.176C442.422 145.696 441.638 145.456 440.646 145.456C439.878 145.456 439.286 145.6 438.87 145.888C438.486 146.176 438.294 146.576 438.294 147.088C438.294 147.728 438.662 148.224 439.398 148.576C440.134 148.896 441.318 149.232 442.95 149.584C444.902 150 446.518 150.464 447.798 150.976C449.11 151.488 450.246 152.32 451.206 153.472C452.198 154.592 452.694 156.128 452.694 158.08C452.694 159.648 452.23 161.056 451.302 162.304C450.406 163.552 449.11 164.544 447.414 165.28C445.75 165.984 443.782 166.336 441.51 166.336ZM465.771 152.512C465.771 149.728 466.267 147.296 467.259 145.216C468.283 143.136 469.659 141.536 471.387 140.416C473.147 139.296 475.099 138.736 477.243 138.736C479.099 138.736 480.699 139.104 482.043 139.84C483.387 140.576 484.427 141.568 485.163 142.816V139.072H494.571V166H485.163V162.256C484.427 163.504 483.371 164.496 481.995 165.232C480.651 165.968 479.067 166.336 477.243 166.336C475.099 166.336 473.147 165.776 471.387 164.656C469.659 163.536 468.283 161.936 467.259 159.856C466.267 157.744 465.771 155.296 465.771 152.512ZM485.163 152.512C485.163 150.784 484.683 149.424 483.723 148.432C482.795 147.44 481.643 146.944 480.267 146.944C478.859 146.944 477.691 147.44 476.763 148.432C475.835 149.392 475.371 150.752 475.371 152.512C475.371 154.24 475.835 155.616 476.763 156.64C477.691 157.632 478.859 158.128 480.267 158.128C481.643 158.128 482.795 157.632 483.723 156.64C484.683 155.648 485.163 154.272 485.163 152.512ZM487.035 130.864V137.248L475.035 132.544V125.44L487.035 130.864Z" fill="#303030"/>
<path d="M490.701 186.015C486.916 186.015 483.849 189.092 483.849 192.889V253.342C483.849 257.139 486.916 260.215 490.701 260.215C494.486 260.215 497.553 257.139 497.553 253.342V192.889C497.558 189.092 494.486 186.015 490.701 186.015Z" fill="#333333"/>
<path d="M473.301 186.628C469.871 185.075 465.834 186.604 464.287 190.046L442.785 237.281L421.363 190.224C419.815 186.782 415.779 185.253 412.348 186.806C408.918 188.358 407.394 192.407 408.941 195.848L436.409 256.194C437.956 259.635 441.993 261.164 445.423 259.612C445.475 259.589 445.517 259.561 445.568 259.537C447.139 258.901 448.481 257.686 449.231 256.016L476.699 195.671C478.256 192.234 476.732 188.185 473.301 186.628Z" fill="#333333"/>
<path d="M569.06 186.628C565.63 185.075 561.593 186.604 560.046 190.046L538.544 237.281L517.122 190.224C515.574 186.782 511.538 185.253 508.107 186.806C504.676 188.358 503.152 192.407 504.7 195.848L532.168 256.194C533.715 259.635 537.752 261.164 541.182 259.612C541.233 259.589 541.275 259.561 541.327 259.537C542.897 258.901 544.24 257.686 544.99 256.016L572.458 195.671C574.015 192.234 572.491 188.185 569.06 186.628Z" fill="#333333"/>
<path d="M626.554 250.541L599.081 190.195C597.534 186.754 593.497 185.225 590.067 186.777C590.016 186.801 589.974 186.829 589.922 186.852C588.352 187.488 587.009 188.704 586.259 190.373L558.786 250.723C557.239 254.165 558.763 258.214 562.193 259.766C565.624 261.319 569.661 259.79 571.208 256.348L592.71 209.114L614.127 256.171C615.675 259.612 619.711 261.141 623.142 259.589C626.577 258.032 628.101 253.982 626.554 250.541Z" fill="#333333"/>
<path d="M203 251.327C203 255.123 206.067 258.2 209.852 258.2C213.637 258.2 216.704 255.123 216.704 251.327V190.873C216.704 187.077 213.637 184 209.852 184C206.067 184 203 187.077 203 190.873V251.327Z" fill="#FDB913"/>
<path d="M260.19 195.918C262.978 193.118 263.071 188.671 260.395 185.987C257.72 183.299 253.287 183.392 250.5 186.193L220.772 216.038C217.984 218.839 217.891 223.286 220.566 225.97C223.242 228.658 227.675 228.565 230.462 225.764L260.19 195.918Z" fill="#94248A"/>
<path d="M220.777 226.227C217.99 223.426 217.897 218.979 220.572 216.296C223.248 213.607 227.68 213.7 230.468 216.501L260.192 246.347C262.979 249.148 263.072 253.594 260.397 256.278C257.721 258.962 253.288 258.873 250.501 256.072L220.777 226.227Z" fill="#004C91"/>
<path d="M297.169 184C276.744 184 260.183 200.613 260.183 221.102C260.183 241.592 276.744 258.205 297.169 258.205C317.594 258.205 334.154 241.592 334.154 221.102C334.15 200.608 317.594 184 297.169 184ZM296.558 245.206C283.623 245.206 273.136 234.685 273.136 221.71C273.136 208.735 283.623 198.214 296.558 198.214C309.493 198.214 319.98 208.735 319.98 221.71C319.98 234.685 309.493 245.206 296.558 245.206Z" fill="#333333"/>
<path d="M373.097 185.912C366.12 185.912 359.659 188.129 354.369 191.888C353.828 188.634 351.018 186.146 347.615 186.146C343.83 186.146 340.763 189.223 340.763 193.02V218.143V246.856V253.473C340.763 257.269 343.83 260.346 347.615 260.346C351.4 260.346 354.467 257.269 354.467 253.473V244.57L354.621 244.547V218.264C354.621 208.071 362.946 199.804 373.172 199.804C383.398 199.804 391.723 208.066 391.723 218.264V219.816V244.285V253.477C391.723 257.274 394.79 260.351 398.575 260.351C402.36 260.351 405.427 257.274 405.427 253.477V246.398V219.816V218.143C405.431 200.342 390.921 185.912 373.097 185.912Z" fill="#333333"/>
<path d="M601.691 323.432C614.625 323.432 625.113 312.911 625.113 299.936C625.113 286.961 614.625 276.44 601.691 276.44H431.757C418.822 276.44 408.335 286.961 408.335 299.936C408.335 312.911 418.822 323.432 431.757 323.432H601.691Z" fill="#94248A"/>
<path d="M449.376 311.634L446.593 304.78H435.747L432.96 311.634H430.433L440.114 288.246H442.189L451.902 311.634H449.376ZM436.619 302.568H445.684L441.149 291.36L436.619 302.568Z" fill="white"/>
<path d="M473.661 304.485C473.046 306.79 471.816 308.609 469.937 309.942C468.091 311.275 465.891 311.924 463.398 311.924C460 311.924 457.212 310.788 455.045 308.483C452.877 306.178 451.805 303.316 451.805 299.94C451.805 296.565 452.873 293.736 454.98 291.431C457.119 289.125 459.869 287.956 463.272 287.956C465.798 287.956 467.998 288.639 469.844 289.972C471.69 291.304 472.92 293.09 473.503 295.396L471.27 295.915C470.203 292.179 467.192 290.163 463.304 290.163C460.587 290.163 458.415 291.103 456.765 292.988C455.147 294.839 454.336 297.177 454.336 299.94C454.336 302.704 455.147 305.042 456.797 306.926C458.447 308.778 460.652 309.717 463.402 309.717C467.322 309.717 470.333 307.637 471.466 303.966L473.661 304.485Z" fill="white"/>
<path d="M493.349 311.635L490.567 304.78H479.72L476.933 311.635H474.407L484.088 288.246H486.162L495.876 311.635H493.349ZM480.592 302.568H489.658L485.123 291.36L480.592 302.568Z" fill="white"/>
<path d="M507.205 288.246C510.799 288.246 513.652 289.35 515.819 291.561C517.987 293.768 519.059 296.565 519.059 299.94C519.059 303.321 517.991 306.112 515.819 308.319C513.652 310.526 510.799 311.635 507.205 311.635H499.724V288.246H507.205ZM507.205 309.521C510.021 309.521 512.291 308.609 513.973 306.79C515.689 304.972 516.532 302.699 516.532 299.936C516.532 297.172 515.689 294.9 513.973 293.081C512.291 291.262 510.021 290.35 507.205 290.35H502.12V309.516H507.205V309.521Z" fill="white"/>
<path d="M526.667 309.521H539.037V311.635H524.271V288.246H538.716V290.36H526.667V298.739H537.676V300.82H526.667V309.521Z" fill="white"/>
<path d="M565.75 288.246L568.957 311.635H566.528L564.133 293.086L556.782 311.635H554.675L547.325 293.086L544.929 311.635H542.468L545.707 288.246H547.781L555.747 308.254L563.68 288.246H565.75Z" fill="white"/>
<path d="M575.3 311.635V288.246H577.696V311.635H575.3Z" fill="white"/>
<path d="M600.492 311.635L597.71 304.78H586.863L584.076 311.635H581.55L591.231 288.246H593.305L603.019 311.635H600.492ZM587.73 302.568H596.796L592.261 291.36L587.73 302.568Z" fill="white"/>
<path d="M729 246.5C729 262.792 715.792 276 699.5 276C683.207 276 675.5 252.292 675.5 236C675.5 219.708 683.207 217 699.5 217C715.792 217 729 230.208 729 246.5Z" fill="#E8E8E8"/>
<path fill-rule="evenodd" clip-rule="evenodd" d="M73.3771 144.107C88.4406 145.006 98.6436 157.46 103.492 171.641C108.596 186.572 109.376 203.772 97.2629 213.974C81.972 226.854 59.9353 233.563 43.4728 222.194C26.1972 210.264 22.0914 186.749 29.568 167.226C36.0637 150.264 55.1243 143.016 73.3771 144.107Z" fill="#94248A"/>
<path fill-rule="evenodd" clip-rule="evenodd" d="M59.5471 236.032C65.1262 236.299 68.9051 240.006 70.7006 244.227C72.5911 248.67 72.88 253.789 68.3937 256.826C62.7304 260.659 54.5686 262.656 48.4714 259.272C42.073 255.721 40.5524 248.723 43.3215 242.913C45.7273 237.864 52.7868 235.707 59.5471 236.032Z" fill="#FDB913"/>
<path fill-rule="evenodd" clip-rule="evenodd" d="M704.547 287.032C710.126 287.299 713.905 291.006 715.701 295.227C717.591 299.67 717.88 304.789 713.394 307.826C707.73 311.659 699.569 313.656 693.471 310.272C687.073 306.721 685.552 299.723 688.321 293.913C690.727 288.864 697.787 286.707 704.547 287.032Z" fill="#FDB913"/>
<path fill-rule="evenodd" clip-rule="evenodd" d="M678.547 0.0317053C684.126 0.299482 687.905 4.00606 689.701 8.22661C691.591 12.6702 691.88 17.7892 687.394 20.8257C681.73 24.6589 673.569 26.6557 667.471 23.2721C661.073 19.7215 659.552 12.7231 662.321 6.91251C664.727 1.86434 671.787 -0.292765 678.547 0.0317053Z" fill="#94248A"/>
<path fill-rule="evenodd" clip-rule="evenodd" d="M149.604 389.07C161.878 389.659 170.191 397.813 174.141 407.099C178.3 416.874 178.936 428.136 169.066 434.817C156.607 443.25 138.651 447.642 125.237 440.199C111.161 432.387 107.815 416.991 113.907 404.208C119.2 393.102 134.731 388.356 149.604 389.07Z" fill="#FDB913"/>
<path fill-rule="evenodd" clip-rule="evenodd" d="M702.08 210.287C710.83 211.392 719.898 215.196 724.185 222.896C728.234 230.167 724.542 238.791 722.433 246.838C720.586 253.881 718.306 260.631 712.988 265.608C706.707 271.486 699.203 277.839 690.691 276.545C682.11 275.241 676.157 267.259 672.406 259.439C669.225 252.808 671.224 245.494 672.307 238.222C673.432 230.677 673.141 222.379 678.707 217.157C684.86 211.383 693.703 209.23 702.08 210.287Z" fill="white" fill-opacity="0.7"/>
</svg>
