<svg width="140" height="47" viewBox="0 0 140 47" fill="none" xmlns="http://www.w3.org/2000/svg">
<path d="M94.9603 0.665192C93.711 0.665192 92.6987 1.68069 92.6987 2.93386V22.8874C92.6987 24.1405 93.711 25.156 94.9603 25.156C96.2095 25.156 97.2218 24.1405 97.2218 22.8874V2.93386C97.2234 1.68069 96.2095 0.665192 94.9603 0.665192Z" fill="#333333"/>
<path d="M89.2172 0.86734C88.0849 0.35496 86.7526 0.859625 86.2418 1.9955L79.1448 17.5861L72.0741 2.05415C71.5633 0.91827 70.231 0.413607 69.0987 0.925987C67.9664 1.43837 67.4633 2.77488 67.974 3.91076L77.0402 23.8288C77.551 24.9646 78.8833 25.4693 80.0156 24.9569C80.0325 24.9492 80.0464 24.94 80.0633 24.9322C80.5818 24.7223 81.0249 24.3211 81.2725 23.7701L90.3387 3.85211C90.8526 2.71777 90.3495 1.38126 89.2172 0.86734Z" fill="#333333"/>
<path d="M120.824 0.86734C119.692 0.35496 118.359 0.859625 117.848 1.9955L110.752 17.5861L103.681 2.05415C103.17 0.91827 101.838 0.413607 100.705 0.925987C99.573 1.43837 99.07 2.77488 99.5807 3.91076L108.647 23.8288C109.158 24.9646 110.49 25.4693 111.622 24.9569C111.639 24.9492 111.653 24.94 111.67 24.9322C112.188 24.7223 112.632 24.3211 112.879 23.7701L121.945 3.85211C122.459 2.71777 121.956 1.38126 120.824 0.86734Z" fill="#333333"/>
<path d="M139.801 21.9629L130.733 2.04488C130.222 0.909002 128.89 0.404338 127.757 0.916718C127.741 0.924434 127.727 0.933695 127.71 0.941412C127.191 1.1513 126.748 1.55256 126.501 2.10353L117.433 22.0231C116.922 23.159 117.425 24.4955 118.557 25.0079C119.69 25.5202 121.022 25.0156 121.533 23.8797L128.63 8.28913L135.699 23.821C136.21 24.9569 137.542 25.4616 138.674 24.9492C139.808 24.4353 140.311 23.0988 139.801 21.9629Z" fill="#333333"/>
<path d="M0 22.2222C0 23.4753 1.01231 24.4909 2.26154 24.4909C3.51078 24.4909 4.52309 23.4753 4.52309 22.2222V2.26867C4.52309 1.0155 3.51078 0 2.26154 0C1.01231 0 0 1.0155 0 2.26867V22.2222Z" fill="#FDB913"/>
<path d="M18.8766 3.93391C19.7966 3.00947 19.8274 1.54178 18.9443 0.655914C18.0612 -0.231491 16.5981 -0.200626 15.6781 0.723819L5.86578 10.5748C4.94578 11.4992 4.91501 12.9669 5.79809 13.8528C6.68117 14.7402 8.14425 14.7093 9.06425 13.7849L18.8766 3.93391Z" fill="#94248A"/>
<path d="M5.86773 13.9377C4.94773 13.0133 4.91696 11.5456 5.80004 10.6597C6.68312 9.77229 8.1462 9.80316 9.0662 10.7276L18.877 20.5786C19.797 21.503 19.8278 22.9707 18.9447 23.8566C18.0616 24.7424 16.5985 24.7131 15.6785 23.7887L5.86773 13.9377Z" fill="#004C91"/>
<path d="M31.0818 0C24.3402 0 18.874 5.4834 18.874 12.2462C18.874 19.009 24.3402 24.4924 31.0818 24.4924C37.8233 24.4924 43.2895 19.009 43.2895 12.2462C43.2879 5.48185 37.8233 0 31.0818 0ZM30.8802 20.202C26.611 20.202 23.1494 16.7295 23.1494 12.4468C23.1494 8.16413 26.611 4.69168 30.8802 4.69168C35.1495 4.69168 38.611 8.16413 38.611 12.4468C38.611 16.7295 35.1495 20.202 30.8802 20.202Z" fill="#333333"/>
<path d="M56.1433 0.631195C53.8402 0.631195 51.7079 1.36273 49.9617 2.60355C49.7833 1.5294 48.8556 0.708361 47.7325 0.708361C46.4833 0.708361 45.4709 1.72386 45.4709 2.97703V11.2693V20.7468V22.9305C45.4709 24.1837 46.4833 25.1992 47.7325 25.1992C48.9817 25.1992 49.994 24.1837 49.994 22.9305V19.9921L50.0448 19.9844V11.3094C50.0448 7.94496 52.7925 5.21638 56.1679 5.21638C59.5433 5.21638 62.291 7.94342 62.291 11.3094V11.8218V19.8979V22.9321C62.291 24.1853 63.3033 25.2008 64.5525 25.2008C65.8018 25.2008 66.8141 24.1853 66.8141 22.9321V20.5955V11.8218V11.2693C66.8156 5.39386 62.0264 0.631195 56.1433 0.631195Z" fill="#333333"/>
<path d="M131.594 46.0216C135.863 46.0216 139.325 42.5491 139.325 38.2664C139.325 33.9837 135.863 30.5113 131.594 30.5113H75.5047C71.2355 30.5113 67.7739 33.9837 67.7739 38.2664C67.7739 42.5491 71.2355 46.0216 75.5047 46.0216H131.594Z" fill="#94248A"/>
<path d="M81.3202 42.1278L80.4017 39.8653H76.8217L75.9017 42.1278H75.0679L78.2633 34.4081H78.9479L82.154 42.1278H81.3202ZM77.1094 39.1353H80.1017L78.6048 35.436L77.1094 39.1353Z" fill="white"/>
<path d="M89.3359 39.7681C89.1329 40.5289 88.7267 41.1293 88.1067 41.5691C87.4975 42.009 86.7713 42.2235 85.9482 42.2235C84.8267 42.2235 83.9067 41.8485 83.1913 41.0876C82.4759 40.3268 82.1221 39.3823 82.1221 38.268C82.1221 37.1537 82.4744 36.22 83.1698 35.4592C83.8759 34.6983 84.7836 34.3125 85.9067 34.3125C86.7406 34.3125 87.4667 34.5378 88.0759 34.9776C88.6852 35.4175 89.0913 36.007 89.2836 36.7679L88.5467 36.9392C88.1944 35.7061 87.2006 35.0409 85.9175 35.0409C85.0205 35.0409 84.3036 35.3511 83.759 35.9731C83.2252 36.5842 82.9575 37.3559 82.9575 38.268C82.9575 39.1801 83.2252 39.9517 83.7698 40.5737C84.3144 41.1848 85.0421 41.495 85.9498 41.495C87.2436 41.495 88.2375 40.8083 88.6113 39.5968L89.3359 39.7681Z" fill="white"/>
<path d="M95.8344 42.1278L94.9159 39.8653H91.3359L90.4159 42.1278H89.582L92.7774 34.4082H93.462L96.6682 42.1278H95.8344ZM91.6236 39.1353H94.6159L93.119 35.436L91.6236 39.1353Z" fill="white"/>
<path d="M100.408 34.4082C101.594 34.4082 102.535 34.7724 103.251 35.5024C103.966 36.2308 104.32 37.1537 104.32 38.268C104.32 39.3838 103.968 40.3052 103.251 41.0336C102.535 41.7621 101.594 42.1278 100.408 42.1278H97.9385V34.4082H100.408ZM100.408 41.4303C101.337 41.4303 102.086 41.1293 102.642 40.529C103.208 39.9286 103.486 39.1786 103.486 38.2665C103.486 37.3544 103.208 36.6043 102.642 36.004C102.086 35.4036 101.337 35.1027 100.408 35.1027H98.7293V41.4287H100.408V41.4303Z" fill="white"/>
<path d="M106.831 41.4303H110.914V42.1278H106.041V34.4082H110.808V35.1057H106.831V37.8714H110.465V38.5581H106.831V41.4303Z" fill="white"/>
<path d="M119.731 34.4082L120.79 42.1278H119.988L119.197 36.0055L116.771 42.1278H116.076L113.65 36.0055L112.859 42.1278H112.047L113.116 34.4082H113.8L116.43 41.012L119.048 34.4082H119.731Z" fill="white"/>
<path d="M122.883 42.1278V34.4082H123.674V42.1278H122.883Z" fill="white"/>
<path d="M131.199 42.1278L130.28 39.8653H126.7L125.78 42.1278H124.946L128.142 34.4082H128.826L132.032 42.1278H131.199ZM126.986 39.1353H129.979L128.482 35.436L126.986 39.1353Z" fill="white"/>
</svg>
