<svg width="12" height="13" viewBox="0 0 12 13" fill="none" xmlns="http://www.w3.org/2000/svg">
<mask id="mask0_5006_241" style="mask-type:alpha" maskUnits="userSpaceOnUse" x="0" y="0" width="13" height="13">
<rect x="0.000244141" y="0.0108032" width="12" height="12" fill="#D9D9D9"/>
</mask>
<g mask="url(#mask0_5006_241)">
<path d="M2.00049 10.5108V5.8233L1.10049 6.5108L0.500488 5.7108L6.00049 1.5108L11.5005 5.7108L10.9005 6.4983L10.0005 5.8233V10.5108H2.00049ZM4.00049 7.5108C3.85882 7.5108 3.74007 7.46289 3.64424 7.36705C3.5484 7.27122 3.50049 7.15247 3.50049 7.0108C3.50049 6.86914 3.5484 6.75039 3.64424 6.65455C3.74007 6.55872 3.85882 6.5108 4.00049 6.5108C4.14215 6.5108 4.26091 6.55872 4.35674 6.65455C4.45257 6.75039 4.50049 6.86914 4.50049 7.0108C4.50049 7.15247 4.45257 7.27122 4.35674 7.36705C4.26091 7.46289 4.14215 7.5108 4.00049 7.5108ZM6.00049 7.5108C5.85882 7.5108 5.74007 7.46289 5.64424 7.36705C5.54841 7.27122 5.50049 7.15247 5.50049 7.0108C5.50049 6.86914 5.54841 6.75039 5.64424 6.65455C5.74007 6.55872 5.85882 6.5108 6.00049 6.5108C6.14216 6.5108 6.26091 6.55872 6.35674 6.65455C6.45257 6.75039 6.50049 6.86914 6.50049 7.0108C6.50049 7.15247 6.45257 7.27122 6.35674 7.36705C6.26091 7.46289 6.14216 7.5108 6.00049 7.5108ZM8.00049 7.5108C7.85882 7.5108 7.74007 7.46289 7.64424 7.36705C7.54841 7.27122 7.50049 7.15247 7.50049 7.0108C7.50049 6.86914 7.54841 6.75039 7.64424 6.65455C7.74007 6.55872 7.85882 6.5108 8.00049 6.5108C8.14216 6.5108 8.26091 6.55872 8.35674 6.65455C8.45257 6.75039 8.50049 6.86914 8.50049 7.0108C8.50049 7.15247 8.45257 7.27122 8.35674 7.36705C8.26091 7.46289 8.14216 7.5108 8.00049 7.5108Z" fill="#0C0C0C"/>
</g>
</svg>
