<svg width="14" height="15" viewBox="0 0 14 15" fill="none" xmlns="http://www.w3.org/2000/svg">
<mask id="mask0_5006_315" style="mask-type:alpha" maskUnits="userSpaceOnUse" x="0" y="0" width="14" height="15">
<rect y="0.0108032" width="14" height="14" fill="#D9D9D9"/>
</mask>
<g mask="url(#mask0_5006_315)">
<path d="M6.88314 12.7566V10.9191H11.1123V3.10245H6.88314V1.26495H11.1123C11.6276 1.26495 12.0627 1.44238 12.4175 1.79725C12.7724 2.15211 12.9498 2.58718 12.9498 3.10245V10.9191C12.9498 11.4344 12.7724 11.8695 12.4175 12.2243C12.0627 12.5792 11.6276 12.7566 11.1123 12.7566H6.88314ZM5.39564 10.6275L4.1123 9.32954L5.5123 7.92954H1.0498V6.09204H5.5123L4.1123 4.69204L5.39564 3.39412L9.0123 7.01079L5.39564 10.6275Z" fill="white"/>
</g>
</svg>
